<svg width="200" height="200" xmlns="http://www.w3.org/2000/svg">

 <g>
  <title>background</title>
  <rect fill="none" id="canvas_background" height="202" width="202" y="-1" x="-1"/>
 </g>
 <g>
  <title>Layer 1</title>
  <g stroke="null" id="surface1">
   <path stroke="null" id="svg_1" fill-rule="evenodd" fill="rgb(50.196078%,50.980392%,50.980392%)" d="m15.51953,74.84766l84.48047,48.07422l84.48047,-48.07422l-23.59766,96.15234l-122,0l-23.36328,-96.15234zm0,0"/>
   <path stroke="null" id="svg_2" fill-rule="evenodd" fill="rgb(6.27451%,10.196078%,10.196078%)" fill-opacity="0.26275" d="m100,51.76953l57.60156,119.23047l-115.20312,0l57.60156,-119.23047zm0,0"/>
   <path stroke="null" id="svg_3" fill-rule="evenodd" fill="rgb(36.862745%,38.823529%,38.823529%)" d="m19.35938,55.61719c0,4.24609 -3.4375,7.6914 -7.67969,7.6914c-4.24219,0 -7.67969,-3.44531 -7.67969,-7.6914c0,-4.25 3.4375,-7.69531 7.67969,-7.69531c4.24219,0 7.67969,3.44531 7.67969,7.69531zm0,0"/>
   <path stroke="null" id="svg_4" fill-rule="evenodd" fill="rgb(36.862745%,38.823529%,38.823529%)" d="m107.67969,28.69141c0,4.25 -3.4375,7.6914 -7.67969,7.6914c-4.24219,0 -7.67969,-3.4414 -7.67969,-7.6914c0,-4.2461 3.4375,-7.69141 7.67969,-7.69141c4.24219,0 7.67969,3.44531 7.67969,7.69141zm0,0"/>
   <path stroke="null" id="svg_5" fill-rule="evenodd" fill="rgb(36.862745%,38.823529%,38.823529%)" d="m196,55.61719c0,4.24609 -3.4375,7.6914 -7.67969,7.6914c-4.24218,0 -7.67968,-3.44531 -7.67968,-7.6914c0,-4.25 3.4375,-7.69531 7.67968,-7.69531c4.24219,0 7.67969,3.44531 7.67969,7.69531zm0,0"/>
  </g>
 </g>
</svg>